<svg xmlns="http://www.w3.org/2000/svg" viewBox="0 0 140 36" role="img" aria-label="Deepset logo" focusable="false"><path d="M50.22 25.4c-1.83 0-3.33-.65-4.48-1.95-1.16-1.3-1.73-2.94-1.73-4.91 0-1.96.58-3.59 1.73-4.88 1.17-1.32 2.67-1.97 4.48-1.97 1.76 0 3.1.61 4.03 1.84V6.4c0-.27.13-.4.4-.4h2.91c.27 0 .4.13.4.4v18.28c0 .27-.14.4-.43.4h-2.59c-.27 0-.4-.13-.4-.4l-.05-1.44c-.98 1.44-2.4 2.16-4.27 2.16zm-1.66-4.32c.64.64 1.45.96 2.43.96.98 0 1.77-.32 2.38-.96.62-.64.93-1.49.93-2.54s-.31-1.89-.93-2.54c-.6-.64-1.4-.96-2.38-.96s-1.79.33-2.43.99c-.64.64-.96 1.48-.96 2.51 0 1.05.32 1.9.96 2.54zm18.96 4.32c-2.12 0-3.84-.65-5.18-1.95-1.33-1.32-2-2.97-2-4.96 0-1.96.62-3.58 1.87-4.86 1.25-1.3 2.86-1.95 4.86-1.95 1.92 0 3.44.61 4.56 1.84 1.14 1.21 1.71 2.68 1.71 4.4 0 .68-.11 1.18-.32 1.52-.2.32-.57.48-1.12.48h-7.95c.41 1.71 1.7 2.56 3.87 2.56 1.1 0 2.12-.27 3.04-.8.18-.11.33-.07.45.11l.99 1.36c.14.2.1.39-.13.59-1.11 1.11-2.66 1.66-4.65 1.66zm-3.63-8.06h6.17c-.11-.85-.43-1.5-.96-1.95-.53-.44-1.2-.67-2-.67-.84 0-1.54.22-2.11.67-.57.45-.94 1.1-1.1 1.95zM82.2 25.4c-2.12 0-3.84-.65-5.18-1.95-1.33-1.32-2-2.97-2-4.96 0-1.96.62-3.58 1.87-4.86 1.25-1.3 2.86-1.95 4.86-1.95 1.92 0 3.44.61 4.56 1.84 1.14 1.21 1.71 2.68 1.71 4.4 0 .68-.11 1.18-.32 1.52-.2.32-.57.48-1.12.48h-7.95c.41 1.71 1.7 2.56 3.87 2.56 1.1 0 2.12-.27 3.04-.8.18-.11.33-.07.45.11l.99 1.36c.14.2.1.39-.13.59-1.11 1.11-2.66 1.66-4.65 1.66zm-3.63-8.06h6.17c-.11-.85-.43-1.5-.96-1.95-.53-.44-1.2-.67-2-.67-.84 0-1.54.22-2.11.67-.58.45-.94 1.1-1.1 1.95zM90.76 31c-.27 0-.4-.13-.4-.4V12.41c0-.27.13-.4.4-.4h2.64c.27 0 .4.13.4.4l.05 1.44c.93-1.44 2.35-2.16 4.27-2.16 1.81 0 3.3.66 4.46 1.97 1.16 1.3 1.73 2.93 1.73 4.88 0 1.97-.58 3.61-1.73 4.91-1.16 1.3-2.64 1.95-4.46 1.95-1.74 0-3.1-.62-4.06-1.87v7.06c0 .27-.13.4-.4.4h-2.9zm6.59-8.96c.98 0 1.78-.32 2.4-.96.64-.64.96-1.49.96-2.54 0-1.03-.32-1.87-.96-2.51-.62-.66-1.42-.99-2.4-.99-1 0-1.81.32-2.43.96-.6.64-.91 1.49-.91 2.54s.3 1.89.91 2.54c.62.64 1.43.96 2.43.96zm13.55 3.36c-2.03 0-3.66-.72-4.88-2.16-.16-.2-.14-.45.05-.77l.93-1.31c.18-.27.4-.3.67-.11 1.12.85 2.13 1.28 3.02 1.28.98 0 1.47-.36 1.47-1.09 0-.3-.11-.55-.32-.75-.2-.2-.54-.4-1.04-.61l-1.65-.67c-1.9-.75-2.86-1.94-2.86-3.58 0-1.21.45-2.17 1.34-2.88.89-.71 1.97-1.07 3.23-1.07 1.8 0 3.26.67 4.38 2 .14.18.13.36-.03.56l-1.17 1.41c-.16.2-.36.2-.61 0-.87-.73-1.66-1.09-2.38-1.09-.41 0-.72.1-.93.29-.21.2-.32.44-.32.75 0 .55.42.98 1.25 1.28l1.84.72c1.97.8 2.95 2.06 2.94 3.79-.02 1.26-.5 2.25-1.44 2.96-.95.71-2.11 1.05-3.49 1.05zm13.78 0c-2.12 0-3.84-.65-5.18-1.95-1.33-1.32-2-2.97-2-4.96 0-1.96.62-3.58 1.87-4.86 1.25-1.3 2.87-1.95 4.86-1.95 1.92 0 3.44.61 4.56 1.84 1.14 1.21 1.71 2.68 1.71 4.4 0 .68-.11 1.18-.32 1.52-.2.32-.57.48-1.12.48h-7.95c.41 1.71 1.7 2.56 3.87 2.56 1.1 0 2.12-.27 3.04-.8.18-.11.33-.07.45.11l.99 1.36c.14.2.1.39-.13.59-1.11 1.11-2.66 1.66-4.65 1.66zm-3.63-8.06h6.17c-.11-.85-.43-1.5-.96-1.95-.53-.44-1.2-.67-2-.67-.84 0-1.54.22-2.11.67-.58.45-.94 1.1-1.1 1.95zm16.73 8.06c-1.16 0-2.11-.3-2.86-.91-.73-.6-1.09-1.57-1.09-2.91v-6.73h-1.65c-.27 0-.4-.13-.4-.4v-2.06c0-.27.13-.4.4-.4h1.65V8.94c0-.27.13-.4.4-.4h2.91c.27 0 .4.13.4.4v3.07h2.06c.27 0 .4.13.4.4v2.06c0 .27-.13.4-.4.4h-2.06v6.33c0 .77.38 1.15 1.15 1.15.34 0 .61-.01.83-.03.32-.04.48.09.48.37v1.95c0 .51-.74.76-2.22.76zM22.55 26h-2.1c-.25 0-.45-.2-.45-.45v-5.3c0-.14-.11-.25-.25-.25H.45C.2 20 0 19.8 0 19.55V.45C0 .2.2 0 .45 0h22.1c.25 0 .45.2.45.45v16.3c0 .14.11.25.25.25h15.3c.25 0 .45.2.45.45v2.1c0 .25-.2.45-.45.45h-15.3c-.14 0-.25.11-.25.25v5.3c0 .25-.2.45-.45.45zM3.2 17h16.6a.2.2 0 00.2-.2V3.2a.2.2 0 00-.2-.2H3.2a.2.2 0 00-.2.2v13.6c0 .11.09.2.2.2z" fill="#188bf5"></path><circle cx="21.5" cy="32.5" r="3.5" fillRule="evenodd" clipRule="evenodd" fill="#188bf5"></circle></svg>